<svg xmlns="http://www.w3.org/2000/svg" xmlns:xlink="http://www.w3.org/1999/xlink" width="660" zoomAndPan="magnify" viewBox="0 0 495 225" height="300" preserveAspectRatio="xMidYMid meet" version="1.0"><defs><g/></defs><rect x="-49.5" width="594" fill="#ffffff" y="-22.5" height="270" fill-opacity="1"/><rect x="-49.5" width="594" fill="#ffffff" y="-22.5" height="270" fill-opacity="1"/><rect x="-49.5" width="594" fill="#ffffff" y="-22.5" height="270" fill-opacity="1"/><rect x="-49.5" width="594" fill="#ffffff" y="-22.5" height="270" fill-opacity="1"/><g fill="#000000" fill-opacity="1"><g transform="translate(38.705504, 131.562402)"><g><path d="M 86.558594 0 L 86.558594 -99.179688 L 82.855469 -99.179688 L 82.855469 0 Z M 78.464844 0 L 78.464844 -99.179688 L 74.898438 -99.179688 L 74.898438 0 Z M 70.511719 0 L 70.511719 -99.179688 L 66.804688 -99.179688 L 66.804688 0 Z M 58.710938 -64.335938 L 34.84375 -64.335938 L 34.84375 -99.179688 L 31.277344 -99.179688 L 31.277344 0 L 34.84375 0 L 34.84375 -36.625 L 58.710938 -36.625 L 58.710938 0 L 62.417969 0 L 62.417969 -99.179688 L 58.710938 -99.179688 Z M 58.710938 -40.195312 L 34.84375 -40.195312 L 34.84375 -44.582031 L 58.710938 -44.582031 Z M 58.710938 -48.285156 L 34.84375 -48.285156 L 34.84375 -52.675781 L 58.710938 -52.675781 Z M 58.710938 -56.242188 L 34.84375 -56.242188 L 34.84375 -60.632812 L 58.710938 -60.632812 Z M 26.886719 0 L 26.886719 -99.179688 L 23.183594 -99.179688 L 23.183594 0 Z M 18.792969 0 L 18.792969 -99.179688 L 15.226562 -99.179688 L 15.226562 0 Z M 10.835938 0 L 10.835938 -99.179688 L 7.132812 -99.179688 L 7.132812 0 Z M 10.835938 0 "/></g></g></g><g fill="#000000" fill-opacity="1"><g transform="translate(132.661646, 131.562402)"><g><path d="M 116.601562 0 L 115.367188 -3.019531 C 112.351562 -10.152344 103.023438 -32.101562 95.203125 -50.34375 L 80.113281 -86.148438 L 78.742188 -89.027344 C 78.605469 -89.441406 78.328125 -89.714844 78.191406 -89.988281 L 77.507812 -91.222656 C 77.367188 -91.5 77.09375 -91.773438 76.957031 -92.046875 L 76.683594 -92.457031 C 76.273438 -93.007812 75.722656 -93.691406 75.175781 -94.378906 C 72.84375 -97.121094 69.550781 -99.316406 66.53125 -100.003906 C 65.296875 -100.550781 64.0625 -100.550781 63.238281 -100.6875 L 63.101562 -100.6875 C 62.28125 -100.828125 61.457031 -100.828125 60.632812 -100.6875 L 60.359375 -100.6875 C 59.671875 -100.550781 58.4375 -100.550781 57.203125 -100.003906 C 54.1875 -99.179688 50.894531 -97.121094 48.5625 -94.378906 C 48.011719 -93.691406 47.464844 -93.007812 47.050781 -92.457031 L 46.777344 -92.046875 C 46.640625 -91.773438 46.367188 -91.5 46.230469 -91.222656 L 45.542969 -90.125 C 45.40625 -89.714844 45.132812 -89.441406 44.996094 -89.027344 L 44.71875 -88.480469 L 28.394531 -50.34375 C 20.441406 -31.414062 10.699219 -8.367188 8.09375 -2.332031 L 7.132812 0 L 11.113281 0 L 11.523438 -0.824219 C 14.128906 -6.996094 23.871094 -30.042969 31.824219 -48.835938 L 46.777344 -84.226562 L 48.285156 -87.382812 C 48.425781 -87.65625 48.5625 -87.933594 48.699219 -88.207031 L 49.382812 -89.304688 C 49.523438 -89.578125 49.660156 -89.714844 49.796875 -89.988281 L 50.070312 -90.265625 C 50.480469 -90.8125 50.757812 -91.359375 51.304688 -91.910156 C 53.226562 -94.105469 55.832031 -95.886719 58.164062 -96.574219 C 58.300781 -96.574219 58.300781 -96.574219 58.300781 -96.574219 C 59.261719 -96.847656 60.085938 -96.984375 60.769531 -96.984375 L 60.90625 -96.984375 C 61.59375 -97.121094 62.140625 -97.121094 62.691406 -96.984375 L 62.964844 -96.984375 C 63.652344 -96.984375 64.472656 -96.847656 65.433594 -96.574219 C 65.433594 -96.574219 65.433594 -96.574219 65.570312 -96.574219 C 67.765625 -95.886719 70.511719 -94.105469 72.429688 -91.910156 C 72.980469 -91.359375 73.253906 -90.8125 73.664062 -90.265625 L 73.941406 -89.988281 C 74.078125 -89.714844 74.214844 -89.441406 74.351562 -89.304688 L 75.035156 -88.207031 C 75.175781 -87.933594 75.3125 -87.65625 75.449219 -87.382812 L 76.410156 -85.460938 L 91.910156 -48.835938 C 99.59375 -30.726562 108.921875 -8.640625 111.9375 -1.644531 L 112.625 0 Z M 72.15625 -83.953125 C 71.882812 -84.503906 71.609375 -85.050781 71.332031 -85.460938 C 71.058594 -86.011719 70.785156 -86.421875 70.371094 -86.972656 L 70.371094 -87.109375 C 70.097656 -87.519531 69.824219 -87.792969 69.414062 -88.207031 C 67.902344 -89.851562 66.121094 -91.085938 64.472656 -91.5 C 63.789062 -91.773438 63.238281 -91.910156 62.828125 -91.910156 L 62.691406 -91.910156 C 62.554688 -91.910156 62.554688 -91.910156 62.554688 -91.910156 C 62.140625 -91.910156 61.59375 -91.910156 61.183594 -91.910156 C 61.183594 -91.910156 61.183594 -91.910156 61.042969 -91.910156 L 60.90625 -91.910156 C 60.496094 -91.910156 59.945312 -91.773438 59.261719 -91.5 C 57.613281 -91.085938 55.695312 -89.851562 54.324219 -88.207031 C 53.910156 -87.792969 53.636719 -87.519531 53.363281 -87.109375 L 53.363281 -86.972656 C 52.949219 -86.421875 52.675781 -86.011719 52.402344 -85.460938 C 52.128906 -85.050781 51.855469 -84.503906 51.578125 -83.953125 L 35.667969 -46.640625 C 27.4375 -27.160156 18.519531 -6.171875 16.597656 -1.644531 L 15.914062 0 L 19.890625 0 L 20.027344 -0.136719 C 21.949219 -4.664062 30.867188 -25.652344 39.097656 -45.132812 L 54.324219 -81.074219 L 54.871094 -82.445312 C 55.144531 -82.855469 55.28125 -83.269531 55.558594 -83.679688 C 55.832031 -84.089844 55.96875 -84.363281 56.242188 -84.777344 L 56.378906 -84.914062 C 56.65625 -85.1875 56.792969 -85.460938 57.066406 -85.738281 C 58.164062 -87.109375 59.535156 -87.792969 60.359375 -88.070312 C 60.359375 -88.070312 60.359375 -88.070312 60.496094 -88.070312 C 60.769531 -88.207031 61.042969 -88.207031 61.320312 -88.207031 C 61.320312 -88.207031 61.457031 -88.207031 61.457031 -88.207031 C 61.730469 -88.34375 62.003906 -88.34375 62.140625 -88.207031 C 62.28125 -88.207031 62.417969 -88.207031 62.417969 -88.207031 C 62.691406 -88.207031 62.964844 -88.207031 63.238281 -88.070312 C 63.375 -88.070312 63.375 -88.070312 63.375 -88.070312 C 64.199219 -87.792969 65.433594 -87.109375 66.667969 -85.738281 C 66.945312 -85.460938 67.082031 -85.1875 67.355469 -84.914062 L 67.492188 -84.777344 C 67.765625 -84.363281 67.902344 -84.089844 68.179688 -83.542969 C 68.453125 -83.269531 68.589844 -82.855469 68.863281 -82.308594 L 103.84375 0 L 107.824219 0 L 72.84375 -82.445312 Z M 61.867188 -81.757812 C 60.359375 -81.757812 58.988281 -80.796875 58.4375 -79.425781 L 24.828125 0 L 28.808594 0 L 61.867188 -77.917969 C 61.867188 -77.917969 61.867188 -78.054688 61.867188 -78.054688 C 61.867188 -78.054688 61.867188 -77.917969 61.867188 -77.917969 L 94.929688 0 L 98.90625 0 L 65.296875 -79.425781 C 64.613281 -80.796875 63.375 -81.757812 61.867188 -81.757812 Z M 62.554688 -63.515625 C 61.867188 -63.925781 61.042969 -63.789062 60.632812 -63.238281 C 60.359375 -62.964844 60.222656 -62.828125 60.222656 -62.554688 C 59.808594 -61.730469 43.761719 -23.871094 34.292969 -1.644531 L 33.609375 0 L 37.585938 0 L 42.527344 -11.386719 L 81.210938 -11.386719 L 86.148438 0 L 90.125 0 L 63.652344 -62.28125 C 63.652344 -62.828125 63.238281 -63.238281 62.554688 -63.515625 Z M 79.699219 -15.089844 L 44.035156 -15.089844 L 46.230469 -20.300781 L 77.507812 -20.300781 Z M 75.996094 -23.871094 L 47.738281 -23.871094 L 49.933594 -29.082031 L 73.800781 -29.082031 Z M 72.15625 -32.785156 L 51.441406 -32.785156 L 53.636719 -37.863281 L 70.097656 -37.863281 Z M 55.28125 -41.566406 L 61.867188 -57.203125 L 68.453125 -41.566406 Z M 55.28125 -41.566406 "/></g></g></g><g fill="#000000" fill-opacity="1"><g transform="translate(256.656312, 131.562402)"><g><path d="M 34.84375 0 L 34.84375 -99.179688 L 31.277344 -99.179688 L 31.277344 0 Z M 26.886719 0 L 26.886719 -99.179688 L 23.183594 -99.179688 L 23.183594 0 Z M 18.792969 0 L 18.792969 -99.179688 L 15.226562 -99.179688 L 15.226562 0 Z M 10.835938 0 L 10.835938 -99.179688 L 7.132812 -99.179688 L 7.132812 0 Z M 10.835938 0 "/></g></g></g><g fill="#000000" fill-opacity="1"><g transform="translate(298.902291, 131.562402)"><g><path d="M 84.914062 0 L 89.027344 0 L 72.292969 -29.492188 C 72.292969 -29.492188 72.292969 -29.628906 72.292969 -29.628906 L 73.117188 -30.316406 C 73.527344 -30.726562 74.078125 -31.140625 74.625 -31.6875 C 75.859375 -33.058594 77.09375 -34.433594 78.328125 -36.078125 C 80.796875 -39.507812 82.582031 -43.074219 83.816406 -46.640625 C 85.1875 -50.757812 85.875 -55.007812 86.011719 -59.125 C 86.011719 -63.652344 85.324219 -68.039062 83.953125 -72.15625 C 81.074219 -80.796875 74.898438 -88.480469 67.082031 -93.417969 C 62.964844 -95.75 58.4375 -97.535156 53.773438 -98.496094 L 53.089844 -98.632812 C 52.128906 -98.769531 51.304688 -98.90625 50.207031 -98.90625 C 49.109375 -99.042969 48.011719 -99.042969 46.777344 -99.179688 L 35.53125 -99.179688 C 35.390625 -99.179688 35.117188 -99.179688 34.84375 -99.179688 C 34.019531 -99.042969 33.335938 -99.042969 32.648438 -99.042969 C 31.960938 -98.90625 31.277344 -98.769531 30.589844 -98.769531 L 30.316406 -98.632812 C 27.296875 -98.082031 24.417969 -97.121094 21.8125 -95.75 C 19.203125 -94.242188 16.871094 -92.457031 14.816406 -90.265625 C 10.699219 -85.875 8.09375 -80.25 7.40625 -74.351562 C 7.269531 -73.800781 7.269531 -73.253906 7.269531 -72.703125 C 7.132812 -72.429688 7.132812 -72.292969 7.132812 -72.019531 L 7.132812 0 L 10.699219 0 L 10.699219 -70.371094 L 10.835938 -71.882812 C 10.835938 -72.019531 10.835938 -72.292969 10.835938 -72.429688 C 10.835938 -72.980469 10.835938 -73.390625 10.972656 -73.800781 C 11.523438 -79.015625 13.855469 -83.953125 17.421875 -87.65625 C 19.203125 -89.578125 21.261719 -91.222656 23.59375 -92.457031 C 25.789062 -93.832031 28.394531 -94.652344 31.003906 -95.066406 L 31.140625 -95.203125 C 31.824219 -95.203125 32.375 -95.339844 32.921875 -95.339844 C 33.609375 -95.476562 34.292969 -95.476562 34.980469 -95.476562 C 35.253906 -95.476562 35.390625 -95.476562 35.53125 -95.476562 L 46.640625 -95.476562 C 47.738281 -95.476562 48.835938 -95.476562 49.933594 -95.339844 C 50.757812 -95.203125 51.578125 -95.066406 52.539062 -94.929688 L 53.226562 -94.929688 C 57.339844 -94.105469 61.457031 -92.457031 65.160156 -90.265625 C 72.292969 -85.875 77.917969 -78.878906 80.523438 -71.058594 C 81.757812 -67.21875 82.308594 -63.238281 82.308594 -59.125 C 82.308594 -55.421875 81.621094 -51.578125 80.386719 -47.875 C 79.289062 -44.582031 77.644531 -41.289062 75.3125 -38.136719 C 74.351562 -36.765625 73.117188 -35.53125 72.019531 -34.292969 C 71.609375 -33.746094 71.058594 -33.335938 70.648438 -32.921875 L 69.960938 -32.238281 C 69.6875 -32.101562 69.550781 -31.960938 69.277344 -31.824219 L 68.316406 -31.003906 C 66.121094 -29.21875 63.515625 -27.710938 60.222656 -26.339844 L 57.203125 -25.105469 L 54.046875 -24.417969 C 53.636719 -24.28125 53.226562 -24.144531 52.8125 -24.144531 C 52.539062 -24.144531 52.402344 -24.007812 52.128906 -24.007812 L 50.207031 -23.730469 L 48.425781 -23.59375 L 34.570312 -23.59375 L 34.570312 -27.984375 L 46.640625 -27.984375 L 49.660156 -28.121094 L 51.578125 -28.394531 C 51.714844 -28.394531 51.855469 -28.394531 51.992188 -28.394531 C 52.402344 -28.535156 52.8125 -28.535156 53.363281 -28.671875 L 55.421875 -29.21875 L 58.574219 -30.316406 C 60.632812 -31.277344 63.238281 -32.511719 65.707031 -34.433594 L 66.53125 -34.980469 L 66.53125 -35.117188 C 66.804688 -35.253906 66.945312 -35.390625 67.082031 -35.667969 L 67.902344 -36.214844 C 68.179688 -36.625 68.589844 -36.902344 69 -37.3125 L 69.277344 -37.585938 C 70.097656 -38.683594 71.058594 -39.644531 71.882812 -40.878906 C 73.941406 -43.484375 75.3125 -46.367188 76.273438 -49.246094 C 77.367188 -52.675781 78.054688 -55.96875 78.054688 -59.261719 C 78.054688 -62.828125 77.507812 -66.257812 76.410156 -69.550781 C 74.214844 -76.410156 69.277344 -82.71875 62.964844 -86.558594 C 59.671875 -88.480469 56.105469 -89.851562 52.265625 -90.539062 C 51.992188 -90.675781 51.714844 -90.675781 51.578125 -90.675781 C 50.894531 -90.8125 50.207031 -90.949219 49.523438 -90.949219 L 46.777344 -91.085938 L 35.53125 -91.085938 C 35.390625 -91.085938 35.117188 -91.085938 34.84375 -91.085938 L 33.335938 -91.085938 C 32.921875 -90.949219 32.511719 -90.949219 32.238281 -90.949219 L 31.6875 -90.8125 C 29.628906 -90.402344 27.574219 -89.714844 25.652344 -88.617188 C 23.730469 -87.65625 22.085938 -86.285156 20.578125 -84.777344 C 17.695312 -81.757812 15.777344 -77.644531 15.226562 -73.390625 C 15.226562 -72.980469 15.089844 -72.566406 15.089844 -72.15625 C 15.089844 -72.019531 15.089844 -71.882812 15.089844 -71.746094 L 15.089844 0 L 18.65625 0 L 18.65625 -71.46875 C 18.65625 -71.746094 18.792969 -71.882812 18.792969 -72.019531 C 18.792969 -72.292969 18.792969 -72.566406 18.792969 -72.703125 L 18.792969 -72.84375 C 19.203125 -76.410156 20.851562 -79.699219 23.183594 -82.308594 C 24.417969 -83.542969 25.789062 -84.640625 27.296875 -85.460938 C 28.945312 -86.285156 30.589844 -86.972656 32.238281 -87.246094 L 32.785156 -87.246094 C 33.058594 -87.382812 33.335938 -87.382812 33.609375 -87.382812 L 35.117188 -87.519531 C 35.253906 -87.519531 35.390625 -87.519531 35.53125 -87.519531 L 46.640625 -87.519531 L 49.246094 -87.382812 C 49.796875 -87.382812 50.34375 -87.246094 50.894531 -87.109375 C 51.167969 -87.109375 51.441406 -87.109375 51.714844 -86.972656 C 55.007812 -86.421875 58.164062 -85.1875 61.042969 -83.40625 C 66.667969 -79.976562 71.058594 -74.488281 72.980469 -68.453125 C 73.941406 -65.570312 74.351562 -62.417969 74.351562 -59.261719 C 74.351562 -56.378906 73.941406 -53.363281 72.84375 -50.480469 C 72.019531 -47.875 70.785156 -45.40625 69 -42.9375 C 68.316406 -41.976562 67.492188 -41.015625 66.667969 -40.054688 L 66.394531 -39.917969 C 66.121094 -39.507812 65.707031 -39.234375 65.433594 -38.957031 L 64.75 -38.273438 C 64.613281 -38.136719 64.472656 -38 64.199219 -37.863281 L 63.515625 -37.3125 C 61.320312 -35.667969 58.988281 -34.433594 57.203125 -33.609375 L 55.144531 -32.921875 L 52.402344 -32.101562 C 52.128906 -32.101562 51.855469 -32.101562 51.441406 -31.960938 C 51.304688 -31.960938 51.03125 -31.960938 50.894531 -31.960938 L 49.382812 -31.6875 L 34.570312 -31.550781 L 34.570312 -35.941406 L 46.503906 -35.941406 L 48.835938 -36.078125 L 50.34375 -36.214844 C 50.480469 -36.214844 50.480469 -36.214844 50.617188 -36.351562 C 50.894531 -36.351562 51.304688 -36.351562 51.578125 -36.488281 L 53.5 -36.902344 L 55.558594 -37.722656 C 57.339844 -38.546875 59.261719 -39.507812 60.769531 -40.742188 L 61.457031 -41.152344 L 61.457031 -41.289062 C 61.59375 -41.429688 61.730469 -41.566406 61.867188 -41.703125 L 62.140625 -41.839844 C 62.28125 -41.976562 62.417969 -42.113281 62.554688 -42.25 C 62.828125 -42.386719 63.101562 -42.664062 63.238281 -42.9375 L 63.789062 -43.484375 C 64.335938 -44.171875 65.023438 -44.71875 65.433594 -45.542969 C 66.945312 -47.601562 68.179688 -49.796875 68.863281 -51.855469 C 69.6875 -54.460938 70.097656 -56.929688 70.097656 -59.261719 C 70.097656 -62.003906 69.6875 -64.613281 68.863281 -67.082031 C 67.21875 -72.15625 63.515625 -76.820312 58.710938 -79.699219 C 56.378906 -81.210938 53.773438 -82.171875 50.894531 -82.71875 C 50.617188 -82.855469 50.34375 -82.855469 50.070312 -82.855469 C 49.660156 -82.992188 49.246094 -82.992188 48.699219 -82.992188 L 46.640625 -83.128906 L 35.53125 -83.128906 C 35.390625 -83.128906 35.117188 -83.128906 34.980469 -83.128906 L 34.019531 -83.128906 C 33.882812 -83.128906 33.746094 -82.992188 33.472656 -82.992188 C 33.335938 -82.992188 33.335938 -82.992188 33.199219 -82.992188 L 33.058594 -82.992188 C 31.824219 -82.71875 30.589844 -82.308594 29.355469 -81.621094 C 28.257812 -81.074219 27.296875 -80.25 26.339844 -79.289062 C 25.378906 -78.328125 24.691406 -77.230469 24.144531 -75.996094 C 23.59375 -74.761719 23.183594 -73.527344 23.183594 -72.429688 C 23.046875 -72.15625 23.046875 -71.882812 23.046875 -71.609375 C 23.046875 -71.609375 23.046875 -71.609375 23.046875 -71.46875 L 23.046875 0 L 26.613281 0 L 26.613281 -71.058594 C 26.613281 -71.332031 26.613281 -71.46875 26.613281 -71.609375 C 26.613281 -71.609375 26.613281 -71.746094 26.613281 -71.746094 L 26.75 -71.882812 C 26.75 -72.703125 27.023438 -73.527344 27.4375 -74.488281 C 27.847656 -75.3125 28.257812 -76.132812 28.945312 -76.820312 C 29.628906 -77.507812 30.316406 -78.054688 31.140625 -78.464844 C 31.960938 -78.878906 32.785156 -79.152344 33.746094 -79.425781 C 33.882812 -79.425781 33.882812 -79.425781 34.019531 -79.425781 C 34.15625 -79.425781 34.292969 -79.425781 34.433594 -79.425781 L 35.253906 -79.5625 C 35.390625 -79.5625 35.390625 -79.5625 35.53125 -79.5625 L 46.640625 -79.5625 L 48.425781 -79.425781 C 48.835938 -79.425781 49.109375 -79.289062 49.523438 -79.289062 C 49.796875 -79.289062 50.070312 -79.152344 50.34375 -79.152344 C 52.675781 -78.742188 54.871094 -77.917969 56.929688 -76.683594 C 60.90625 -74.078125 64.0625 -70.234375 65.433594 -65.847656 C 66.121094 -63.789062 66.53125 -61.59375 66.53125 -59.261719 C 66.394531 -57.339844 66.121094 -55.144531 65.433594 -52.949219 C 64.75 -51.304688 63.925781 -49.523438 62.554688 -47.601562 C 62.140625 -47.050781 61.59375 -46.503906 61.042969 -45.953125 L 60.769531 -45.40625 C 60.496094 -45.269531 60.359375 -45.132812 60.085938 -44.996094 C 59.945312 -44.71875 59.808594 -44.582031 59.671875 -44.582031 L 59.398438 -44.308594 C 59.398438 -44.171875 59.261719 -44.171875 59.261719 -44.035156 L 58.574219 -43.621094 C 57.203125 -42.527344 55.558594 -41.703125 54.1875 -41.015625 L 52.539062 -40.46875 L 50.757812 -39.917969 C 50.480469 -39.917969 50.34375 -39.917969 50.207031 -39.917969 C 50.070312 -39.917969 49.796875 -39.78125 49.660156 -39.78125 L 48.699219 -39.644531 L 47.601562 -39.644531 L 34.570312 -39.507812 L 34.570312 -43.898438 L 45.269531 -43.898438 L 48.011719 -44.035156 L 49.109375 -44.171875 C 49.109375 -44.171875 49.246094 -44.171875 49.246094 -44.171875 C 49.382812 -44.171875 49.660156 -44.171875 50.070312 -44.308594 C 50.207031 -44.308594 50.480469 -44.445312 50.617188 -44.445312 L 51.03125 -44.582031 L 51.714844 -44.71875 C 51.992188 -44.859375 52.128906 -44.996094 52.402344 -44.996094 L 52.8125 -45.269531 C 53.773438 -45.679688 55.007812 -46.230469 55.96875 -47.191406 L 56.519531 -47.464844 C 56.519531 -47.601562 56.65625 -47.601562 56.792969 -47.738281 L 56.929688 -47.875 C 56.929688 -48.011719 57.066406 -48.011719 57.203125 -48.148438 C 57.339844 -48.285156 57.476562 -48.425781 57.613281 -48.5625 L 57.753906 -48.699219 C 57.890625 -48.835938 58.027344 -48.972656 58.164062 -49.109375 C 58.4375 -49.382812 58.851562 -49.796875 59.125 -50.34375 C 60.222656 -51.714844 60.90625 -53.089844 61.320312 -54.460938 C 61.867188 -56.242188 62.140625 -57.890625 62.140625 -59.398438 C 62.140625 -61.183594 61.867188 -62.964844 61.320312 -64.472656 C 60.222656 -67.902344 57.890625 -70.921875 54.597656 -72.84375 C 53.089844 -73.800781 51.304688 -74.488281 49.523438 -74.898438 L 49.382812 -74.898438 C 49.109375 -74.898438 48.972656 -74.898438 48.835938 -75.035156 C 48.5625 -75.035156 48.285156 -75.035156 48.148438 -75.035156 L 47.875 -75.035156 C 47.601562 -75.035156 47.191406 -75.175781 46.777344 -75.175781 L 35.667969 -75.175781 C 35.390625 -75.175781 35.253906 -75.175781 35.117188 -75.175781 L 34.84375 -75.175781 C 34.707031 -75.175781 34.707031 -75.175781 34.707031 -75.175781 L 34.433594 -75.035156 C 34.019531 -75.035156 33.609375 -74.898438 33.335938 -74.761719 L 33.199219 -74.625 C 32.785156 -74.351562 32.511719 -74.078125 32.238281 -73.800781 C 31.824219 -73.527344 31.550781 -73.117188 31.277344 -72.566406 L 31.277344 -72.429688 C 31.277344 -72.429688 31.277344 -72.292969 31.140625 -72.15625 L 31.003906 -72.15625 L 31.003906 0 L 34.570312 0 L 34.570312 -19.890625 L 46.09375 -19.890625 L 57.476562 0 L 61.59375 0 L 50.070312 -20.164062 L 52.675781 -20.441406 C 52.949219 -20.441406 53.089844 -20.578125 53.363281 -20.578125 C 53.773438 -20.578125 54.1875 -20.714844 54.734375 -20.851562 L 66.667969 0 L 70.785156 0 L 58.300781 -21.675781 L 61.59375 -22.910156 L 61.730469 -22.910156 C 62.003906 -23.046875 62.140625 -23.183594 62.417969 -23.320312 L 75.722656 0 L 79.976562 0 L 65.707031 -24.964844 C 67.082031 -25.652344 68.179688 -26.476562 69.414062 -27.296875 Z M 34.570312 -70.371094 L 34.570312 -71.058594 L 34.707031 -71.332031 C 34.84375 -71.332031 34.84375 -71.46875 34.980469 -71.46875 C 34.980469 -71.46875 34.980469 -71.46875 35.117188 -71.46875 C 35.253906 -71.46875 35.390625 -71.46875 35.390625 -71.609375 C 35.53125 -71.609375 35.53125 -71.609375 35.667969 -71.609375 L 46.640625 -71.609375 C 46.914062 -71.46875 47.328125 -71.46875 47.738281 -71.46875 C 47.875 -71.46875 48.011719 -71.46875 48.148438 -71.46875 C 48.425781 -71.332031 48.699219 -71.332031 48.835938 -71.332031 C 50.207031 -71.058594 51.578125 -70.511719 52.8125 -69.824219 C 55.144531 -68.316406 57.066406 -65.847656 57.890625 -63.375 C 58.300781 -62.140625 58.574219 -60.769531 58.574219 -59.398438 C 58.574219 -58.164062 58.300781 -56.929688 57.890625 -55.558594 C 57.613281 -54.597656 57.066406 -53.5 56.242188 -52.402344 L 56.105469 -52.402344 C 55.96875 -52.128906 55.695312 -51.855469 55.421875 -51.441406 C 55.28125 -51.304688 55.144531 -51.167969 55.007812 -51.03125 C 55.007812 -51.03125 54.871094 -50.894531 54.871094 -50.894531 C 54.734375 -50.757812 54.597656 -50.617188 54.460938 -50.480469 C 54.324219 -50.480469 54.324219 -50.34375 54.1875 -50.34375 C 54.1875 -50.34375 54.1875 -50.34375 54.1875 -50.207031 L 53.773438 -49.933594 C 53.089844 -49.382812 52.128906 -48.972656 51.304688 -48.425781 L 51.167969 -48.425781 C 50.894531 -48.285156 50.617188 -48.285156 50.34375 -48.148438 L 49.796875 -48.011719 C 49.523438 -47.875 49.246094 -47.875 48.972656 -47.738281 C 48.972656 -47.738281 48.972656 -47.738281 48.835938 -47.738281 C 48.699219 -47.738281 48.5625 -47.738281 48.425781 -47.738281 L 47.875 -47.601562 L 34.570312 -47.464844 Z M 34.570312 -70.371094 "/></g></g></g><g fill="#000000" fill-opacity="1"><g transform="translate(207.279346, 169.727492)"><g><path d="M 52.390625 -35.3125 C 54.898438 -33.769531 56.082031 -31.910156 55.9375 -29.734375 C 55.738281 -27.753906 54.53125 -25.65625 52.3125 -23.4375 C 49.46875 -20.59375 45.921875 -18.207031 41.671875 -16.28125 C 37.429688 -14.351562 31.8125 -12.207031 24.8125 -9.84375 C 26.988281 -9.75 28.679688 -9.554688 29.890625 -9.265625 C 32.734375 -8.535156 34.375 -7.253906 34.8125 -5.421875 C 35 -4.503906 34.800781 -3.566406 34.21875 -2.609375 C 33.59375 -1.398438 32.582031 -0.117188 31.1875 1.234375 C 26.507812 5.671875 20.285156 9.382812 12.515625 12.375 C 9.859375 13.34375 7.472656 14.113281 5.359375 14.6875 L 3.1875 15.203125 C 2.363281 15.296875 1.90625 15.34375 1.8125 15.34375 C 1.320312 15.34375 0.910156 15.171875 0.578125 14.828125 C 0.335938 14.585938 0.3125 14.347656 0.5 14.109375 C 0.0703125 13.773438 -0.09375 13.460938 0 13.171875 C 1.300781 9.691406 3.109375 6.171875 5.421875 2.609375 C 6.722656 0.578125 8.179688 -1.484375 9.796875 -3.578125 C 11.421875 -5.679688 13.316406 -8.054688 15.484375 -10.703125 C 17.648438 -13.359375 19.242188 -15.3125 20.265625 -16.5625 C 20.648438 -17.050781 21.53125 -18.148438 22.90625 -19.859375 C 24.28125 -21.578125 25.351562 -22.894531 26.125 -23.8125 L 28.21875 -26.265625 C 28.507812 -26.648438 28.992188 -27.226562 29.671875 -28 L 30.609375 -29.15625 L 31.046875 -29.734375 C 31.085938 -29.835938 31.425781 -29.957031 32.0625 -30.09375 C 32.6875 -30.195312 33.070312 -30.003906 33.21875 -29.515625 C 33.3125 -29.085938 33.285156 -28.773438 33.140625 -28.578125 L 32.640625 -28 L 31.765625 -26.921875 L 30.390625 -25.25 L 28.359375 -22.859375 C 27.054688 -21.273438 25.15625 -18.890625 22.65625 -15.703125 C 22.070312 -14.972656 21.203125 -13.894531 20.046875 -12.46875 C 18.890625 -11.050781 18.019531 -9.984375 17.4375 -9.265625 C 18.019531 -9.554688 18.453125 -9.75 18.734375 -9.84375 C 19.265625 -10.082031 20.113281 -10.394531 21.28125 -10.78125 C 22.476562 -11.21875 24.367188 -11.859375 26.953125 -12.703125 C 29.535156 -13.546875 31.617188 -14.242188 33.203125 -14.796875 C 34.796875 -15.347656 36.703125 -16.128906 38.921875 -17.140625 C 41.148438 -18.160156 43.175781 -19.25 45 -20.40625 C 47.894531 -22.238281 50.140625 -24.191406 51.734375 -26.265625 C 53.035156 -28.003906 53.675781 -29.472656 53.65625 -30.671875 C 53.632812 -31.878906 52.984375 -32.859375 51.703125 -33.609375 C 50.421875 -34.359375 48.863281 -34.898438 47.03125 -35.234375 C 45.195312 -35.578125 43.171875 -35.75 40.953125 -35.75 C 35.503906 -35.75 29.957031 -35.023438 24.3125 -33.578125 C 22.914062 -33.234375 21.660156 -32.867188 20.546875 -32.484375 L 18.375 -31.765625 C 15.625 -30.648438 13.671875 -29.734375 12.515625 -29.015625 C 11.453125 -28.242188 10.800781 -27.691406 10.5625 -27.359375 L 10.5625 -27.28125 C 10.320312 -26.84375 9.863281 -26.722656 9.1875 -26.921875 C 8.945312 -26.960938 8.71875 -27.078125 8.5 -27.265625 C 8.28125 -27.460938 8.222656 -27.6875 8.328125 -27.9375 C 8.609375 -28.507812 9.132812 -29.109375 9.90625 -29.734375 C 10.539062 -30.265625 11.363281 -30.773438 12.375 -31.265625 C 14.394531 -32.273438 16.640625 -33.164062 19.109375 -33.9375 C 21.222656 -34.65625 23.582031 -35.257812 26.1875 -35.75 C 29.1875 -36.320312 32.15625 -36.753906 35.09375 -37.046875 C 38.757812 -37.378906 41.921875 -37.453125 44.578125 -37.265625 C 48.097656 -36.972656 50.703125 -36.320312 52.390625 -35.3125 Z M 27.421875 1.59375 C 32.484375 -2.21875 33.785156 -5.015625 31.328125 -6.796875 C 29.304688 -8.242188 25.785156 -8.65625 20.765625 -8.03125 C 20.285156 -7.976562 19.78125 -7.90625 19.25 -7.8125 C 17.894531 -7.570312 17.023438 -7.597656 16.640625 -7.890625 L 16.421875 -8.109375 C 16.273438 -7.910156 16.054688 -7.628906 15.765625 -7.265625 C 15.484375 -6.910156 15.269531 -6.632812 15.125 -6.4375 C 8.894531 1.375 4.816406 7.835938 2.890625 12.953125 C 2.890625 13.003906 2.863281 13.078125 2.8125 13.171875 C 2.769531 13.265625 2.75 13.335938 2.75 13.390625 C 4 13.148438 4.988281 12.882812 5.71875 12.59375 C 7.070312 12.207031 8.273438 11.820312 9.328125 11.4375 C 14.441406 9.550781 18.953125 7.378906 22.859375 4.921875 C 24.648438 3.710938 26.171875 2.601562 27.421875 1.59375 Z M 27.421875 1.59375 "/></g></g></g><g fill="#000000" fill-opacity="1"><g transform="translate(252.70663, 169.727492)"><g><path d="M 61.359375 3.625 C 64.835938 4.632812 66.285156 6.128906 65.703125 8.109375 C 65.609375 8.441406 65.332031 8.617188 64.875 8.640625 C 64.414062 8.671875 64.003906 8.550781 63.640625 8.28125 C 63.273438 8.019531 63.140625 7.71875 63.234375 7.375 C 63.378906 6.894531 63.359375 6.5625 63.171875 6.375 C 62.492188 5.789062 61.453125 5.316406 60.046875 4.953125 C 58.648438 4.585938 57.554688 4.367188 56.765625 4.296875 C 55.972656 4.234375 54.707031 4.148438 52.96875 4.046875 C 48.4375 3.660156 43.804688 3.660156 39.078125 4.046875 C 36.234375 4.242188 34.179688 4.414062 32.921875 4.5625 C 31.710938 4.707031 29.59375 4.972656 26.5625 5.359375 C 19.851562 6.316406 11.265625 8.078125 0.796875 10.640625 C 0.117188 11.941406 -0.628906 13.289062 -1.453125 14.6875 C -3.140625 17.675781 -4.5625 19.96875 -5.71875 21.5625 C -7.550781 23.976562 -9.285156 25.5 -10.921875 26.125 C -12.804688 26.894531 -14.472656 26.75 -15.921875 25.6875 C -17.222656 24.769531 -17.703125 23.46875 -17.359375 21.78125 C -17.171875 20.476562 -16.519531 18.984375 -15.40625 17.296875 C -14.539062 16.085938 -13.457031 14.953125 -12.15625 13.890625 C -10.03125 12.253906 -7.160156 10.878906 -3.546875 9.765625 C -2.484375 9.472656 -1.660156 9.257812 -1.078125 9.125 L -0.21875 7.375 C -0.21875 7.332031 -0.191406 7.3125 -0.140625 7.3125 C 0.578125 5.570312 1.566406 3.59375 2.828125 1.375 C 2.972656 1.039062 3.203125 0.550781 3.515625 -0.09375 C 3.828125 -0.75 4.054688 -1.25 4.203125 -1.59375 C 3.140625 -0.820312 2.316406 -0.265625 1.734375 0.078125 C 0.523438 0.648438 -0.460938 0.890625 -1.234375 0.796875 C -2.484375 0.503906 -3.226562 -0.265625 -3.46875 -1.515625 C -3.613281 -2.484375 -3.519531 -3.398438 -3.1875 -4.265625 C -2.695312 -5.328125 -2.164062 -6.390625 -1.59375 -7.453125 C -1.539062 -7.546875 -1.140625 -8.242188 -0.390625 -9.546875 C 0.347656 -10.847656 0.863281 -11.816406 1.15625 -12.453125 C 1.394531 -12.929688 1.890625 -13.050781 2.640625 -12.8125 C 3.390625 -12.570312 3.691406 -12.207031 3.546875 -11.71875 L 3.046875 -10.703125 C 2.941406 -10.460938 2.753906 -10.125 2.484375 -9.6875 C 2.222656 -9.257812 2.019531 -8.925781 1.875 -8.6875 C 1.15625 -7.476562 0.382812 -6.03125 -0.4375 -4.34375 C -0.96875 -2.800781 -1.160156 -1.738281 -1.015625 -1.15625 C -0.722656 -1.101562 -0.144531 -1.367188 0.71875 -1.953125 C 1.59375 -2.535156 2.34375 -3.140625 2.96875 -3.765625 C 3.019531 -3.804688 3.984375 -4.84375 5.859375 -6.875 C 6.972656 -8.175781 7.742188 -9.066406 8.171875 -9.546875 C 8.660156 -10.078125 9.410156 -10.847656 10.421875 -11.859375 C 10.992188 -12.734375 11.546875 -13.21875 12.078125 -13.3125 C 12.609375 -13.40625 13.046875 -13.3125 13.390625 -13.03125 C 13.867188 -12.6875 13.960938 -12.367188 13.671875 -12.078125 C 12.804688 -11.210938 12.273438 -10.632812 12.078125 -10.34375 C 11.742188 -9.8125 11.238281 -8.96875 10.5625 -7.8125 C 10.226562 -7.238281 9.722656 -6.382812 9.046875 -5.25 C 8.367188 -4.113281 7.863281 -3.28125 7.53125 -2.75 C 7.476562 -2.695312 7.414062 -2.597656 7.34375 -2.453125 C 7.269531 -2.316406 7.207031 -2.222656 7.15625 -2.171875 C 4.84375 2.554688 3.445312 5.40625 2.96875 6.375 C 2.769531 6.800781 2.429688 7.453125 1.953125 8.328125 C 7.117188 7.066406 11.582031 6.078125 15.34375 5.359375 C 20.070312 4.484375 24.289062 3.78125 28 3.25 C 32.289062 2.71875 36.5625 2.359375 40.8125 2.171875 C 45.78125 1.878906 50.53125 2 55.0625 2.53125 C 57.90625 2.820312 60.003906 3.1875 61.359375 3.625 Z M -4.265625 15.046875 C -3.972656 14.566406 -3.535156 13.851562 -2.953125 12.90625 C -2.378906 11.96875 -2.070312 11.453125 -2.03125 11.359375 C -3.570312 11.796875 -5.160156 12.375 -6.796875 13.09375 C -9.785156 14.445312 -12.078125 16.398438 -13.671875 18.953125 C -15.359375 21.703125 -15.695312 23.535156 -14.6875 24.453125 C -13.820312 25.328125 -12.472656 25.039062 -10.640625 23.59375 C -9.960938 23.007812 -9.285156 22.304688 -8.609375 21.484375 C -7.066406 19.515625 -5.617188 17.367188 -4.265625 15.046875 Z M -4.265625 15.046875 "/></g></g></g><g fill="#000000" fill-opacity="1"><g transform="translate(269.416346, 169.727492)"><g/></g></g><g fill="#000000" fill-opacity="1"><g transform="translate(288.947182, 169.727492)"><g><path d="M 56.953125 -39.71875 C 57.335938 -40.101562 57.9375 -40.101562 58.75 -39.71875 C 59.332031 -39.4375 59.476562 -39.078125 59.1875 -38.640625 C 58.800781 -38.015625 58.390625 -37.484375 57.953125 -37.046875 C 57.617188 -36.660156 57.113281 -36.226562 56.4375 -35.75 C 56.101562 -35.507812 55.671875 -35.53125 55.140625 -35.8125 L 53.328125 -34.59375 C 50.484375 -32.65625 42.671875 -27.539062 29.890625 -19.25 C 28.921875 -18.664062 27.273438 -17.613281 24.953125 -16.09375 C 22.640625 -14.582031 20.859375 -13.4375 19.609375 -12.65625 C 17.335938 -11.3125 15.816406 -10.375 15.046875 -9.84375 C 13.890625 -9.019531 12.972656 -8.296875 12.296875 -7.671875 L 12.375 -7.671875 L 12.453125 -7.59375 L 14.6875 -6.15625 C 16.519531 -4.851562 20.1875 -1.882812 25.6875 2.75 C 28.144531 4.820312 29.929688 6.269531 31.046875 7.09375 L 33.796875 9.125 C 34.179688 9.257812 34.53125 9.484375 34.84375 9.796875 C 35.15625 10.117188 35.164062 10.421875 34.875 10.703125 C 34.488281 11.085938 34.148438 11.28125 33.859375 11.28125 C 33.523438 11.332031 33.117188 11.265625 32.640625 11.078125 C 32.253906 10.785156 32.007812 10.539062 31.90625 10.34375 C 31.425781 10.050781 31.066406 9.8125 30.828125 9.625 C 30.242188 9.238281 29.375 8.613281 28.21875 7.75 C 26.914062 6.726562 25.007812 5.164062 22.5 3.0625 C 19.988281 0.96875 18.109375 -0.582031 16.859375 -1.59375 C 14.734375 -3.332031 13.09375 -4.585938 11.9375 -5.359375 C 11.164062 -5.835938 10.515625 -6.148438 9.984375 -6.296875 C 7.816406 -2.773438 5.71875 0.769531 3.6875 4.34375 C 2.195312 6.894531 1.066406 8.941406 0.296875 10.484375 C -2.597656 15.742188 -4.046875 19.097656 -4.046875 20.546875 C -4.046875 20.597656 -3.972656 20.707031 -3.828125 20.875 C -3.691406 21.039062 -3.625 21.222656 -3.625 21.421875 C -3.570312 21.847656 -3.882812 22.0625 -4.5625 22.0625 L -4.625 22.0625 L -4.5625 22.0625 C -5.332031 21.96875 -5.882812 21.609375 -6.21875 20.984375 C -6.65625 20.160156 -6.296875 18.472656 -5.140625 15.921875 C -3.929688 13.078125 -1.925781 9.21875 0.875 4.34375 C 2.75 0.96875 5.160156 -3.128906 8.109375 -7.953125 L 12.8125 -15.40625 C 13.34375 -16.226562 14.1875 -17.460938 15.34375 -19.109375 L 19.25 -24.96875 C 20.40625 -26.800781 21.679688 -28.726562 23.078125 -30.75 L 25.109375 -33.640625 L 26.1875 -35.171875 C 26.1875 -35.210938 26.222656 -35.269531 26.296875 -35.34375 C 26.367188 -35.414062 26.429688 -35.5 26.484375 -35.59375 L 26.5625 -35.671875 L 26.5625 -36.109375 C 26.5625 -36.585938 26.945312 -36.707031 27.71875 -36.46875 C 28.488281 -36.226562 28.875 -35.796875 28.875 -35.171875 C 28.875 -34.972656 28.773438 -34.726562 28.578125 -34.4375 L 27.5625 -33 L 25.765625 -30.390625 C 25.566406 -30.097656 25.03125 -29.300781 24.15625 -28 C 23.289062 -26.695312 22.617188 -25.707031 22.140625 -25.03125 C 21.367188 -23.78125 20.164062 -21.945312 18.53125 -19.53125 L 15.125 -14.46875 C 13.625 -12.101562 12.972656 -11.019531 13.171875 -11.21875 C 13.554688 -11.457031 15.050781 -12.394531 17.65625 -14.03125 C 18.625 -14.613281 20.070312 -15.53125 22 -16.78125 L 33.796875 -24.390625 C 42.765625 -30.128906 50.484375 -35.238281 56.953125 -39.71875 Z M 0 0 Z M 0 0 Z M 0 0 "/></g></g></g><g fill="#000000" fill-opacity="1"><g transform="translate(321.136894, 169.727492)"><g><path d="M 23.015625 -11.21875 C 23.253906 -11.125 23.445312 -10.96875 23.59375 -10.75 C 23.738281 -10.53125 23.738281 -10.347656 23.59375 -10.203125 C 20.40625 -7.398438 17.992188 -5.46875 16.359375 -4.40625 C 14.765625 -3.394531 13.847656 -2.816406 13.609375 -2.671875 C 11.242188 -1.367188 9.578125 -0.625 8.609375 -0.4375 C 6.148438 -0.144531 4.507812 -0.675781 3.6875 -2.03125 C 3.207031 -2.75 3.160156 -3.757812 3.546875 -5.0625 C 3.109375 -4.53125 2.382812 -3.804688 1.375 -2.890625 C 1.226562 -2.742188 0.910156 -2.414062 0.421875 -1.90625 C -0.0546875 -1.40625 -0.4375 -1.0625 -0.71875 -0.875 C -1.25 -0.382812 -1.925781 0.00390625 -2.75 0.296875 C -3.757812 0.722656 -4.703125 0.625 -5.578125 0 C -6.203125 -0.476562 -6.515625 -1.203125 -6.515625 -2.171875 C -6.460938 -3.378906 -5.738281 -4.921875 -4.34375 -6.796875 C -3.082031 -8.347656 -1.753906 -9.628906 -0.359375 -10.640625 C 0.648438 -11.359375 1.925781 -11.984375 3.46875 -12.515625 C 4.195312 -12.710938 4.800781 -12.785156 5.28125 -12.734375 C 6.394531 -12.347656 6.804688 -11.84375 6.515625 -11.21875 C 6.316406 -10.726562 5.90625 -10.628906 5.28125 -10.921875 C 5.09375 -11.066406 4.753906 -11.066406 4.265625 -10.921875 C 3.203125 -10.441406 2.117188 -9.816406 1.015625 -9.046875 C -0.242188 -7.984375 -1.1875 -7.066406 -1.8125 -6.296875 C -3.019531 -4.898438 -3.765625 -3.742188 -4.046875 -2.828125 C -4.335938 -2.097656 -4.390625 -1.492188 -4.203125 -1.015625 C -4.097656 -1.015625 -4.023438 -1.035156 -3.984375 -1.078125 C -2.578125 -1.804688 -1.203125 -2.96875 0.140625 -4.5625 L 4.34375 -9.046875 L 6.578125 -11.078125 L 6.65625 -11.140625 C 6.800781 -11.335938 7.066406 -11.640625 7.453125 -12.046875 C 7.835938 -12.453125 8.101562 -12.78125 8.25 -13.03125 C 8.488281 -13.3125 8.910156 -13.351562 9.515625 -13.15625 C 10.117188 -12.96875 10.421875 -12.679688 10.421875 -12.296875 L 10.421875 -12.234375 C 10.421875 -12.035156 10.226562 -11.679688 9.84375 -11.171875 C 9.457031 -10.671875 9.007812 -10.128906 8.5 -9.546875 C 8 -8.972656 7.675781 -8.585938 7.53125 -8.390625 L 6.875 -7.3125 C 6.34375 -6.195312 5.976562 -5.328125 5.78125 -4.703125 C 5.445312 -3.691406 5.492188 -2.929688 5.921875 -2.421875 C 6.359375 -1.921875 7.015625 -1.789062 7.890625 -2.03125 C 8.609375 -2.269531 10.003906 -2.921875 12.078125 -3.984375 C 14.203125 -5.085938 17.363281 -7.5 21.5625 -11.21875 C 22.039062 -11.507812 22.523438 -11.507812 23.015625 -11.21875 Z M 23.015625 -11.21875 "/></g></g></g><g fill="#000000" fill-opacity="1"><g transform="translate(342.331478, 169.727492)"><g><path d="M 1.515625 -12.078125 C 2.140625 -12.328125 2.671875 -12.234375 3.109375 -11.796875 C 3.453125 -11.453125 2.921875 -10.171875 1.515625 -7.953125 C 4.171875 -9.785156 6.269531 -11.113281 7.8125 -11.9375 L 8.25 -12.15625 L 8.90625 -12.453125 C 10.0625 -12.929688 11.097656 -13.242188 12.015625 -13.390625 C 12.054688 -13.390625 12.25 -13.410156 12.59375 -13.453125 C 13.21875 -13.453125 13.578125 -13.429688 13.671875 -13.390625 C 14.734375 -13.148438 15.171875 -12.640625 14.984375 -11.859375 C 14.734375 -11.378906 14.082031 -11.332031 13.03125 -11.71875 C 12.539062 -11.71875 11.863281 -11.550781 11 -11.21875 C 10.226562 -10.875 9.503906 -10.507812 8.828125 -10.125 L 8.109375 -9.765625 L 6.734375 -8.96875 L 5.9375 -8.46875 L 4.203125 -7.453125 L 2.890625 -6.4375 L 1.078125 -4.703125 L -0.578125 -3.1875 L -2.25 -1.296875 C -2.488281 -0.816406 -2.820312 -0.285156 -3.25 0.296875 C -3.351562 0.484375 -3.425781 0.601562 -3.46875 0.65625 C -3.570312 0.84375 -4.007812 0.84375 -4.78125 0.65625 C -4.96875 0.550781 -5.132812 0.378906 -5.28125 0.140625 C -5.425781 -0.0976562 -5.472656 -0.289062 -5.421875 -0.4375 L -4.5625 -1.734375 C -3.40625 -3.472656 -2.679688 -4.628906 -2.390625 -5.203125 L -1.953125 -6.078125 L -0.4375 -8.828125 C 0.238281 -10.515625 0.890625 -11.597656 1.515625 -12.078125 Z M 1.515625 -12.078125 "/></g></g></g><g fill="#000000" fill-opacity="1"><g transform="translate(356.437089, 169.727492)"><g><path d="M 4.046875 -18.734375 C 5.398438 -20.671875 6.507812 -22.191406 7.375 -23.296875 C 8.25 -24.410156 9.410156 -25.738281 10.859375 -27.28125 C 12.304688 -28.820312 13.753906 -30.125 15.203125 -31.1875 C 16.691406 -32.4375 17.941406 -32.507812 18.953125 -31.40625 C 18.953125 -31.0625 18.988281 -30.816406 19.0625 -30.671875 C 19.132812 -30.535156 19.085938 -30.25 18.921875 -29.8125 C 18.753906 -29.375 18.632812 -29.046875 18.5625 -28.828125 C 18.488281 -28.617188 18.316406 -28.296875 18.046875 -27.859375 C 17.785156 -27.421875 17.582031 -27.101562 17.4375 -26.90625 C 17.289062 -26.71875 17.082031 -26.429688 16.8125 -26.046875 C 16.550781 -25.660156 16.398438 -25.421875 16.359375 -25.328125 L 15.921875 -24.671875 C 13.703125 -21.585938 11.457031 -18.835938 9.1875 -16.421875 C 7.882812 -15.023438 6.050781 -13.3125 3.6875 -11.28125 L 3.046875 -10.703125 C 2.078125 -9.835938 1.253906 -9.1875 0.578125 -8.75 L 0.578125 -8.828125 L -0.359375 -6.796875 C -1.421875 -4.578125 -2 -2.671875 -2.09375 -1.078125 L -2.09375 -0.796875 C -2.09375 -0.703125 -2.046875 -0.640625 -1.953125 -0.609375 C -1.859375 -0.585938 -1.722656 -0.585938 -1.546875 -0.609375 C -1.378906 -0.640625 -1.195312 -0.675781 -1 -0.71875 C -0.8125 -0.769531 -0.597656 -0.84375 -0.359375 -0.9375 C -0.117188 -1.03125 0.0820312 -1.113281 0.25 -1.1875 C 0.414062 -1.257812 0.582031 -1.34375 0.75 -1.4375 C 0.925781 -1.539062 1.035156 -1.59375 1.078125 -1.59375 C 2.578125 -2.363281 4.582031 -3.617188 7.09375 -5.359375 C 7.28125 -5.503906 7.578125 -5.71875 7.984375 -6 C 8.398438 -6.289062 8.707031 -6.507812 8.90625 -6.65625 C 10.0625 -7.476562 11.335938 -8.515625 12.734375 -9.765625 C 12.828125 -9.859375 13.71875 -10.609375 15.40625 -12.015625 C 15.65625 -12.109375 15.921875 -12.117188 16.203125 -12.046875 C 16.492188 -11.972656 16.734375 -11.800781 16.921875 -11.53125 C 17.117188 -11.269531 17.144531 -11.046875 17 -10.859375 C 16.8125 -10.710938 16.4375 -10.394531 15.875 -9.90625 C 15.320312 -9.425781 14.898438 -9.066406 14.609375 -8.828125 L 13.3125 -7.8125 C 13.21875 -7.71875 12.960938 -7.515625 12.546875 -7.203125 C 12.140625 -6.890625 11.863281 -6.660156 11.71875 -6.515625 L 10.640625 -5.71875 C 8.460938 -4.070312 6.554688 -2.722656 4.921875 -1.671875 L 4.203125 -1.234375 C 3.085938 -0.609375 2.097656 -0.0976562 1.234375 0.296875 C 0.316406 0.679688 -0.515625 0.941406 -1.265625 1.078125 C -2.015625 1.222656 -2.710938 1.113281 -3.359375 0.75 C -4.015625 0.394531 -4.296875 -0.335938 -4.203125 -1.453125 C -4.097656 -2.222656 -4.046875 -2.628906 -4.046875 -2.671875 C -3.859375 -3.828125 -3.304688 -5.46875 -2.390625 -7.59375 C -0.742188 -11.21875 1.398438 -14.929688 4.046875 -18.734375 Z M 8.03125 -18.234375 C 12.519531 -23.441406 15.414062 -27.347656 16.71875 -29.953125 L 15.921875 -29.3125 C 13.890625 -27.570312 11.789062 -25.328125 9.625 -22.578125 C 7.0625 -19.347656 4.9375 -16.359375 3.25 -13.609375 L 3.40625 -13.671875 C 5.238281 -15.316406 6.78125 -16.835938 8.03125 -18.234375 Z M 8.03125 -18.234375 "/></g></g></g><g fill="#000000" fill-opacity="1"><g transform="translate(370.542701, 169.727492)"><g><path d="M 4.34375 -12.015625 L 3.90625 -11.578125 L 3.625 -11.359375 L 2.828125 -10.640625 C 1.421875 -9.234375 0.3125 -7.90625 -0.5 -6.65625 C -1.664062 -5.0625 -2.460938 -3.46875 -2.890625 -1.875 C -2.992188 -1.488281 -3.046875 -1.222656 -3.046875 -1.078125 C -2.992188 -0.890625 -2.820312 -0.84375 -2.53125 -0.9375 L -1.671875 -1.15625 C -1.140625 -1.300781 0.5 -1.976562 3.25 -3.1875 C 4.695312 -3.8125 7.234375 -5.304688 10.859375 -7.671875 C 11.390625 -8.003906 12.253906 -8.554688 13.453125 -9.328125 C 14.660156 -10.097656 15.628906 -10.703125 16.359375 -11.140625 C 16.691406 -11.234375 17.085938 -11.132812 17.546875 -10.84375 C 18.003906 -10.5625 18.085938 -10.25 17.796875 -9.90625 C 17.554688 -9.625 16.90625 -9.144531 15.84375 -8.46875 C 11.019531 -5.332031 7.546875 -3.207031 5.421875 -2.09375 C 3.972656 -1.375 2.9375 -0.894531 2.3125 -0.65625 C -1.78125 1.132812 -4.265625 1.1875 -5.140625 -0.5 C -5.378906 -1.03125 -5.398438 -1.585938 -5.203125 -2.171875 C -4.960938 -3.140625 -4.628906 -3.957031 -4.203125 -4.625 C -2.554688 -7.71875 -0.210938 -10.566406 2.828125 -13.171875 C 3.210938 -13.359375 3.570312 -13.316406 3.90625 -13.046875 C 4.238281 -12.785156 4.382812 -12.441406 4.34375 -12.015625 Z M 4.78125 -15.265625 C 4.25 -15.359375 3.984375 -15.671875 3.984375 -16.203125 C 3.984375 -16.253906 4.003906 -16.300781 4.046875 -16.34375 C 4.097656 -16.394531 4.144531 -16.457031 4.1875 -16.53125 C 4.238281 -16.601562 4.3125 -16.660156 4.40625 -16.703125 C 4.507812 -16.753906 4.617188 -16.84375 4.734375 -16.96875 C 4.859375 -17.09375 4.992188 -17.203125 5.140625 -17.296875 C 5.285156 -17.390625 5.476562 -17.519531 5.71875 -17.6875 C 5.957031 -17.851562 6.195312 -18.035156 6.4375 -18.234375 C 6.675781 -18.378906 6.960938 -18.414062 7.296875 -18.34375 C 7.640625 -18.269531 7.882812 -18.160156 8.03125 -18.015625 C 8.5625 -17.679688 8.660156 -17.34375 8.328125 -17 L 7.59375 -16.421875 L 6.953125 -15.921875 C 6.078125 -15.335938 5.351562 -15.117188 4.78125 -15.265625 Z M 4.78125 -15.265625 "/></g></g></g><g fill="#ecc9c7" fill-opacity="1"><g transform="translate(206.640233, 168.682926)"><g><path d="M 52.390625 -35.3125 C 54.898438 -33.769531 56.082031 -31.910156 55.9375 -29.734375 C 55.738281 -27.753906 54.53125 -25.65625 52.3125 -23.4375 C 49.46875 -20.59375 45.921875 -18.207031 41.671875 -16.28125 C 37.429688 -14.351562 31.8125 -12.207031 24.8125 -9.84375 C 26.988281 -9.75 28.679688 -9.554688 29.890625 -9.265625 C 32.734375 -8.535156 34.375 -7.253906 34.8125 -5.421875 C 35 -4.503906 34.800781 -3.566406 34.21875 -2.609375 C 33.59375 -1.398438 32.582031 -0.117188 31.1875 1.234375 C 26.507812 5.671875 20.285156 9.382812 12.515625 12.375 C 9.859375 13.34375 7.472656 14.113281 5.359375 14.6875 L 3.1875 15.203125 C 2.363281 15.296875 1.90625 15.34375 1.8125 15.34375 C 1.320312 15.34375 0.910156 15.171875 0.578125 14.828125 C 0.335938 14.585938 0.3125 14.347656 0.5 14.109375 C 0.0703125 13.773438 -0.09375 13.460938 0 13.171875 C 1.300781 9.691406 3.109375 6.171875 5.421875 2.609375 C 6.722656 0.578125 8.179688 -1.484375 9.796875 -3.578125 C 11.421875 -5.679688 13.316406 -8.054688 15.484375 -10.703125 C 17.648438 -13.359375 19.242188 -15.3125 20.265625 -16.5625 C 20.648438 -17.050781 21.53125 -18.148438 22.90625 -19.859375 C 24.28125 -21.578125 25.351562 -22.894531 26.125 -23.8125 L 28.21875 -26.265625 C 28.507812 -26.648438 28.992188 -27.226562 29.671875 -28 L 30.609375 -29.15625 L 31.046875 -29.734375 C 31.085938 -29.835938 31.425781 -29.957031 32.0625 -30.09375 C 32.6875 -30.195312 33.070312 -30.003906 33.21875 -29.515625 C 33.3125 -29.085938 33.285156 -28.773438 33.140625 -28.578125 L 32.640625 -28 L 31.765625 -26.921875 L 30.390625 -25.25 L 28.359375 -22.859375 C 27.054688 -21.273438 25.15625 -18.890625 22.65625 -15.703125 C 22.070312 -14.972656 21.203125 -13.894531 20.046875 -12.46875 C 18.890625 -11.050781 18.019531 -9.984375 17.4375 -9.265625 C 18.019531 -9.554688 18.453125 -9.75 18.734375 -9.84375 C 19.265625 -10.082031 20.113281 -10.394531 21.28125 -10.78125 C 22.476562 -11.21875 24.367188 -11.859375 26.953125 -12.703125 C 29.535156 -13.546875 31.617188 -14.242188 33.203125 -14.796875 C 34.796875 -15.347656 36.703125 -16.128906 38.921875 -17.140625 C 41.148438 -18.160156 43.175781 -19.25 45 -20.40625 C 47.894531 -22.238281 50.140625 -24.191406 51.734375 -26.265625 C 53.035156 -28.003906 53.675781 -29.472656 53.65625 -30.671875 C 53.632812 -31.878906 52.984375 -32.859375 51.703125 -33.609375 C 50.421875 -34.359375 48.863281 -34.898438 47.03125 -35.234375 C 45.195312 -35.578125 43.171875 -35.75 40.953125 -35.75 C 35.503906 -35.75 29.957031 -35.023438 24.3125 -33.578125 C 22.914062 -33.234375 21.660156 -32.867188 20.546875 -32.484375 L 18.375 -31.765625 C 15.625 -30.648438 13.671875 -29.734375 12.515625 -29.015625 C 11.453125 -28.242188 10.800781 -27.691406 10.5625 -27.359375 L 10.5625 -27.28125 C 10.320312 -26.84375 9.863281 -26.722656 9.1875 -26.921875 C 8.945312 -26.960938 8.71875 -27.078125 8.5 -27.265625 C 8.28125 -27.460938 8.222656 -27.6875 8.328125 -27.9375 C 8.609375 -28.507812 9.132812 -29.109375 9.90625 -29.734375 C 10.539062 -30.265625 11.363281 -30.773438 12.375 -31.265625 C 14.394531 -32.273438 16.640625 -33.164062 19.109375 -33.9375 C 21.222656 -34.65625 23.582031 -35.257812 26.1875 -35.75 C 29.1875 -36.320312 32.15625 -36.753906 35.09375 -37.046875 C 38.757812 -37.378906 41.921875 -37.453125 44.578125 -37.265625 C 48.097656 -36.972656 50.703125 -36.320312 52.390625 -35.3125 Z M 27.421875 1.59375 C 32.484375 -2.21875 33.785156 -5.015625 31.328125 -6.796875 C 29.304688 -8.242188 25.785156 -8.65625 20.765625 -8.03125 C 20.285156 -7.976562 19.78125 -7.90625 19.25 -7.8125 C 17.894531 -7.570312 17.023438 -7.597656 16.640625 -7.890625 L 16.421875 -8.109375 C 16.273438 -7.910156 16.054688 -7.628906 15.765625 -7.265625 C 15.484375 -6.910156 15.269531 -6.632812 15.125 -6.4375 C 8.894531 1.375 4.816406 7.835938 2.890625 12.953125 C 2.890625 13.003906 2.863281 13.078125 2.8125 13.171875 C 2.769531 13.265625 2.75 13.335938 2.75 13.390625 C 4 13.148438 4.988281 12.882812 5.71875 12.59375 C 7.070312 12.207031 8.273438 11.820312 9.328125 11.4375 C 14.441406 9.550781 18.953125 7.378906 22.859375 4.921875 C 24.648438 3.710938 26.171875 2.601562 27.421875 1.59375 Z M 27.421875 1.59375 "/></g></g></g><g fill="#ecc9c7" fill-opacity="1"><g transform="translate(252.067517, 168.682926)"><g><path d="M 61.359375 3.625 C 64.835938 4.632812 66.285156 6.128906 65.703125 8.109375 C 65.609375 8.441406 65.332031 8.617188 64.875 8.640625 C 64.414062 8.671875 64.003906 8.550781 63.640625 8.28125 C 63.273438 8.019531 63.140625 7.71875 63.234375 7.375 C 63.378906 6.894531 63.359375 6.5625 63.171875 6.375 C 62.492188 5.789062 61.453125 5.316406 60.046875 4.953125 C 58.648438 4.585938 57.554688 4.367188 56.765625 4.296875 C 55.972656 4.234375 54.707031 4.148438 52.96875 4.046875 C 48.4375 3.660156 43.804688 3.660156 39.078125 4.046875 C 36.234375 4.242188 34.179688 4.414062 32.921875 4.5625 C 31.710938 4.707031 29.59375 4.972656 26.5625 5.359375 C 19.851562 6.316406 11.265625 8.078125 0.796875 10.640625 C 0.117188 11.941406 -0.628906 13.289062 -1.453125 14.6875 C -3.140625 17.675781 -4.5625 19.96875 -5.71875 21.5625 C -7.550781 23.976562 -9.285156 25.5 -10.921875 26.125 C -12.804688 26.894531 -14.472656 26.75 -15.921875 25.6875 C -17.222656 24.769531 -17.703125 23.46875 -17.359375 21.78125 C -17.171875 20.476562 -16.519531 18.984375 -15.40625 17.296875 C -14.539062 16.085938 -13.457031 14.953125 -12.15625 13.890625 C -10.03125 12.253906 -7.160156 10.878906 -3.546875 9.765625 C -2.484375 9.472656 -1.660156 9.257812 -1.078125 9.125 L -0.21875 7.375 C -0.21875 7.332031 -0.191406 7.3125 -0.140625 7.3125 C 0.578125 5.570312 1.566406 3.59375 2.828125 1.375 C 2.972656 1.039062 3.203125 0.550781 3.515625 -0.09375 C 3.828125 -0.75 4.054688 -1.25 4.203125 -1.59375 C 3.140625 -0.820312 2.316406 -0.265625 1.734375 0.078125 C 0.523438 0.648438 -0.460938 0.890625 -1.234375 0.796875 C -2.484375 0.503906 -3.226562 -0.265625 -3.46875 -1.515625 C -3.613281 -2.484375 -3.519531 -3.398438 -3.1875 -4.265625 C -2.695312 -5.328125 -2.164062 -6.390625 -1.59375 -7.453125 C -1.539062 -7.546875 -1.140625 -8.242188 -0.390625 -9.546875 C 0.347656 -10.847656 0.863281 -11.816406 1.15625 -12.453125 C 1.394531 -12.929688 1.890625 -13.050781 2.640625 -12.8125 C 3.390625 -12.570312 3.691406 -12.207031 3.546875 -11.71875 L 3.046875 -10.703125 C 2.941406 -10.460938 2.753906 -10.125 2.484375 -9.6875 C 2.222656 -9.257812 2.019531 -8.925781 1.875 -8.6875 C 1.15625 -7.476562 0.382812 -6.03125 -0.4375 -4.34375 C -0.96875 -2.800781 -1.160156 -1.738281 -1.015625 -1.15625 C -0.722656 -1.101562 -0.144531 -1.367188 0.71875 -1.953125 C 1.59375 -2.535156 2.34375 -3.140625 2.96875 -3.765625 C 3.019531 -3.804688 3.984375 -4.84375 5.859375 -6.875 C 6.972656 -8.175781 7.742188 -9.066406 8.171875 -9.546875 C 8.660156 -10.078125 9.410156 -10.847656 10.421875 -11.859375 C 10.992188 -12.734375 11.546875 -13.21875 12.078125 -13.3125 C 12.609375 -13.40625 13.046875 -13.3125 13.390625 -13.03125 C 13.867188 -12.6875 13.960938 -12.367188 13.671875 -12.078125 C 12.804688 -11.210938 12.273438 -10.632812 12.078125 -10.34375 C 11.742188 -9.8125 11.238281 -8.96875 10.5625 -7.8125 C 10.226562 -7.238281 9.722656 -6.382812 9.046875 -5.25 C 8.367188 -4.113281 7.863281 -3.28125 7.53125 -2.75 C 7.476562 -2.695312 7.414062 -2.597656 7.34375 -2.453125 C 7.269531 -2.316406 7.207031 -2.222656 7.15625 -2.171875 C 4.84375 2.554688 3.445312 5.40625 2.96875 6.375 C 2.769531 6.800781 2.429688 7.453125 1.953125 8.328125 C 7.117188 7.066406 11.582031 6.078125 15.34375 5.359375 C 20.070312 4.484375 24.289062 3.78125 28 3.25 C 32.289062 2.71875 36.5625 2.359375 40.8125 2.171875 C 45.78125 1.878906 50.53125 2 55.0625 2.53125 C 57.90625 2.820312 60.003906 3.1875 61.359375 3.625 Z M -4.265625 15.046875 C -3.972656 14.566406 -3.535156 13.851562 -2.953125 12.90625 C -2.378906 11.96875 -2.070312 11.453125 -2.03125 11.359375 C -3.570312 11.796875 -5.160156 12.375 -6.796875 13.09375 C -9.785156 14.445312 -12.078125 16.398438 -13.671875 18.953125 C -15.359375 21.703125 -15.695312 23.535156 -14.6875 24.453125 C -13.820312 25.328125 -12.472656 25.039062 -10.640625 23.59375 C -9.960938 23.007812 -9.285156 22.304688 -8.609375 21.484375 C -7.066406 19.515625 -5.617188 17.367188 -4.265625 15.046875 Z M -4.265625 15.046875 "/></g></g></g><g fill="#ecc9c7" fill-opacity="1"><g transform="translate(268.777234, 168.682926)"><g/></g></g><g fill="#ecc9c7" fill-opacity="1"><g transform="translate(288.308069, 168.682926)"><g><path d="M 56.953125 -39.71875 C 57.335938 -40.101562 57.9375 -40.101562 58.75 -39.71875 C 59.332031 -39.4375 59.476562 -39.078125 59.1875 -38.640625 C 58.800781 -38.015625 58.390625 -37.484375 57.953125 -37.046875 C 57.617188 -36.660156 57.113281 -36.226562 56.4375 -35.75 C 56.101562 -35.507812 55.671875 -35.53125 55.140625 -35.8125 L 53.328125 -34.59375 C 50.484375 -32.65625 42.671875 -27.539062 29.890625 -19.25 C 28.921875 -18.664062 27.273438 -17.613281 24.953125 -16.09375 C 22.640625 -14.582031 20.859375 -13.4375 19.609375 -12.65625 C 17.335938 -11.3125 15.816406 -10.375 15.046875 -9.84375 C 13.890625 -9.019531 12.972656 -8.296875 12.296875 -7.671875 L 12.375 -7.671875 L 12.453125 -7.59375 L 14.6875 -6.15625 C 16.519531 -4.851562 20.1875 -1.882812 25.6875 2.75 C 28.144531 4.820312 29.929688 6.269531 31.046875 7.09375 L 33.796875 9.125 C 34.179688 9.257812 34.53125 9.484375 34.84375 9.796875 C 35.15625 10.117188 35.164062 10.421875 34.875 10.703125 C 34.488281 11.085938 34.148438 11.28125 33.859375 11.28125 C 33.523438 11.332031 33.117188 11.265625 32.640625 11.078125 C 32.253906 10.785156 32.007812 10.539062 31.90625 10.34375 C 31.425781 10.050781 31.066406 9.8125 30.828125 9.625 C 30.242188 9.238281 29.375 8.613281 28.21875 7.75 C 26.914062 6.726562 25.007812 5.164062 22.5 3.0625 C 19.988281 0.96875 18.109375 -0.582031 16.859375 -1.59375 C 14.734375 -3.332031 13.09375 -4.585938 11.9375 -5.359375 C 11.164062 -5.835938 10.515625 -6.148438 9.984375 -6.296875 C 7.816406 -2.773438 5.71875 0.769531 3.6875 4.34375 C 2.195312 6.894531 1.066406 8.941406 0.296875 10.484375 C -2.597656 15.742188 -4.046875 19.097656 -4.046875 20.546875 C -4.046875 20.597656 -3.972656 20.707031 -3.828125 20.875 C -3.691406 21.039062 -3.625 21.222656 -3.625 21.421875 C -3.570312 21.847656 -3.882812 22.0625 -4.5625 22.0625 L -4.625 22.0625 L -4.5625 22.0625 C -5.332031 21.96875 -5.882812 21.609375 -6.21875 20.984375 C -6.65625 20.160156 -6.296875 18.472656 -5.140625 15.921875 C -3.929688 13.078125 -1.925781 9.21875 0.875 4.34375 C 2.75 0.96875 5.160156 -3.128906 8.109375 -7.953125 L 12.8125 -15.40625 C 13.34375 -16.226562 14.1875 -17.460938 15.34375 -19.109375 L 19.25 -24.96875 C 20.40625 -26.800781 21.679688 -28.726562 23.078125 -30.75 L 25.109375 -33.640625 L 26.1875 -35.171875 C 26.1875 -35.210938 26.222656 -35.269531 26.296875 -35.34375 C 26.367188 -35.414062 26.429688 -35.5 26.484375 -35.59375 L 26.5625 -35.671875 L 26.5625 -36.109375 C 26.5625 -36.585938 26.945312 -36.707031 27.71875 -36.46875 C 28.488281 -36.226562 28.875 -35.796875 28.875 -35.171875 C 28.875 -34.972656 28.773438 -34.726562 28.578125 -34.4375 L 27.5625 -33 L 25.765625 -30.390625 C 25.566406 -30.097656 25.03125 -29.300781 24.15625 -28 C 23.289062 -26.695312 22.617188 -25.707031 22.140625 -25.03125 C 21.367188 -23.78125 20.164062 -21.945312 18.53125 -19.53125 L 15.125 -14.46875 C 13.625 -12.101562 12.972656 -11.019531 13.171875 -11.21875 C 13.554688 -11.457031 15.050781 -12.394531 17.65625 -14.03125 C 18.625 -14.613281 20.070312 -15.53125 22 -16.78125 L 33.796875 -24.390625 C 42.765625 -30.128906 50.484375 -35.238281 56.953125 -39.71875 Z M 0 0 Z M 0 0 Z M 0 0 "/></g></g></g><g fill="#ecc9c7" fill-opacity="1"><g transform="translate(320.497781, 168.682926)"><g><path d="M 23.015625 -11.21875 C 23.253906 -11.125 23.445312 -10.96875 23.59375 -10.75 C 23.738281 -10.53125 23.738281 -10.347656 23.59375 -10.203125 C 20.40625 -7.398438 17.992188 -5.46875 16.359375 -4.40625 C 14.765625 -3.394531 13.847656 -2.816406 13.609375 -2.671875 C 11.242188 -1.367188 9.578125 -0.625 8.609375 -0.4375 C 6.148438 -0.144531 4.507812 -0.675781 3.6875 -2.03125 C 3.207031 -2.75 3.160156 -3.757812 3.546875 -5.0625 C 3.109375 -4.53125 2.382812 -3.804688 1.375 -2.890625 C 1.226562 -2.742188 0.910156 -2.414062 0.421875 -1.90625 C -0.0546875 -1.40625 -0.4375 -1.0625 -0.71875 -0.875 C -1.25 -0.382812 -1.925781 0.00390625 -2.75 0.296875 C -3.757812 0.722656 -4.703125 0.625 -5.578125 0 C -6.203125 -0.476562 -6.515625 -1.203125 -6.515625 -2.171875 C -6.460938 -3.378906 -5.738281 -4.921875 -4.34375 -6.796875 C -3.082031 -8.347656 -1.753906 -9.628906 -0.359375 -10.640625 C 0.648438 -11.359375 1.925781 -11.984375 3.46875 -12.515625 C 4.195312 -12.710938 4.800781 -12.785156 5.28125 -12.734375 C 6.394531 -12.347656 6.804688 -11.84375 6.515625 -11.21875 C 6.316406 -10.726562 5.90625 -10.628906 5.28125 -10.921875 C 5.09375 -11.066406 4.753906 -11.066406 4.265625 -10.921875 C 3.203125 -10.441406 2.117188 -9.816406 1.015625 -9.046875 C -0.242188 -7.984375 -1.1875 -7.066406 -1.8125 -6.296875 C -3.019531 -4.898438 -3.765625 -3.742188 -4.046875 -2.828125 C -4.335938 -2.097656 -4.390625 -1.492188 -4.203125 -1.015625 C -4.097656 -1.015625 -4.023438 -1.035156 -3.984375 -1.078125 C -2.578125 -1.804688 -1.203125 -2.96875 0.140625 -4.5625 L 4.34375 -9.046875 L 6.578125 -11.078125 L 6.65625 -11.140625 C 6.800781 -11.335938 7.066406 -11.640625 7.453125 -12.046875 C 7.835938 -12.453125 8.101562 -12.78125 8.25 -13.03125 C 8.488281 -13.3125 8.910156 -13.351562 9.515625 -13.15625 C 10.117188 -12.96875 10.421875 -12.679688 10.421875 -12.296875 L 10.421875 -12.234375 C 10.421875 -12.035156 10.226562 -11.679688 9.84375 -11.171875 C 9.457031 -10.671875 9.007812 -10.128906 8.5 -9.546875 C 8 -8.972656 7.675781 -8.585938 7.53125 -8.390625 L 6.875 -7.3125 C 6.34375 -6.195312 5.976562 -5.328125 5.78125 -4.703125 C 5.445312 -3.691406 5.492188 -2.929688 5.921875 -2.421875 C 6.359375 -1.921875 7.015625 -1.789062 7.890625 -2.03125 C 8.609375 -2.269531 10.003906 -2.921875 12.078125 -3.984375 C 14.203125 -5.085938 17.363281 -7.5 21.5625 -11.21875 C 22.039062 -11.507812 22.523438 -11.507812 23.015625 -11.21875 Z M 23.015625 -11.21875 "/></g></g></g><g fill="#ecc9c7" fill-opacity="1"><g transform="translate(341.692365, 168.682926)"><g><path d="M 1.515625 -12.078125 C 2.140625 -12.328125 2.671875 -12.234375 3.109375 -11.796875 C 3.453125 -11.453125 2.921875 -10.171875 1.515625 -7.953125 C 4.171875 -9.785156 6.269531 -11.113281 7.8125 -11.9375 L 8.25 -12.15625 L 8.90625 -12.453125 C 10.0625 -12.929688 11.097656 -13.242188 12.015625 -13.390625 C 12.054688 -13.390625 12.25 -13.410156 12.59375 -13.453125 C 13.21875 -13.453125 13.578125 -13.429688 13.671875 -13.390625 C 14.734375 -13.148438 15.171875 -12.640625 14.984375 -11.859375 C 14.734375 -11.378906 14.082031 -11.332031 13.03125 -11.71875 C 12.539062 -11.71875 11.863281 -11.550781 11 -11.21875 C 10.226562 -10.875 9.503906 -10.507812 8.828125 -10.125 L 8.109375 -9.765625 L 6.734375 -8.96875 L 5.9375 -8.46875 L 4.203125 -7.453125 L 2.890625 -6.4375 L 1.078125 -4.703125 L -0.578125 -3.1875 L -2.25 -1.296875 C -2.488281 -0.816406 -2.820312 -0.285156 -3.25 0.296875 C -3.351562 0.484375 -3.425781 0.601562 -3.46875 0.65625 C -3.570312 0.84375 -4.007812 0.84375 -4.78125 0.65625 C -4.96875 0.550781 -5.132812 0.378906 -5.28125 0.140625 C -5.425781 -0.0976562 -5.472656 -0.289062 -5.421875 -0.4375 L -4.5625 -1.734375 C -3.40625 -3.472656 -2.679688 -4.628906 -2.390625 -5.203125 L -1.953125 -6.078125 L -0.4375 -8.828125 C 0.238281 -10.515625 0.890625 -11.597656 1.515625 -12.078125 Z M 1.515625 -12.078125 "/></g></g></g><g fill="#ecc9c7" fill-opacity="1"><g transform="translate(355.797976, 168.682926)"><g><path d="M 4.046875 -18.734375 C 5.398438 -20.671875 6.507812 -22.191406 7.375 -23.296875 C 8.25 -24.410156 9.410156 -25.738281 10.859375 -27.28125 C 12.304688 -28.820312 13.753906 -30.125 15.203125 -31.1875 C 16.691406 -32.4375 17.941406 -32.507812 18.953125 -31.40625 C 18.953125 -31.0625 18.988281 -30.816406 19.0625 -30.671875 C 19.132812 -30.535156 19.085938 -30.25 18.921875 -29.8125 C 18.753906 -29.375 18.632812 -29.046875 18.5625 -28.828125 C 18.488281 -28.617188 18.316406 -28.296875 18.046875 -27.859375 C 17.785156 -27.421875 17.582031 -27.101562 17.4375 -26.90625 C 17.289062 -26.71875 17.082031 -26.429688 16.8125 -26.046875 C 16.550781 -25.660156 16.398438 -25.421875 16.359375 -25.328125 L 15.921875 -24.671875 C 13.703125 -21.585938 11.457031 -18.835938 9.1875 -16.421875 C 7.882812 -15.023438 6.050781 -13.3125 3.6875 -11.28125 L 3.046875 -10.703125 C 2.078125 -9.835938 1.253906 -9.1875 0.578125 -8.75 L 0.578125 -8.828125 L -0.359375 -6.796875 C -1.421875 -4.578125 -2 -2.671875 -2.09375 -1.078125 L -2.09375 -0.796875 C -2.09375 -0.703125 -2.046875 -0.640625 -1.953125 -0.609375 C -1.859375 -0.585938 -1.722656 -0.585938 -1.546875 -0.609375 C -1.378906 -0.640625 -1.195312 -0.675781 -1 -0.71875 C -0.8125 -0.769531 -0.597656 -0.84375 -0.359375 -0.9375 C -0.117188 -1.03125 0.0820312 -1.113281 0.25 -1.1875 C 0.414062 -1.257812 0.582031 -1.34375 0.75 -1.4375 C 0.925781 -1.539062 1.035156 -1.59375 1.078125 -1.59375 C 2.578125 -2.363281 4.582031 -3.617188 7.09375 -5.359375 C 7.28125 -5.503906 7.578125 -5.71875 7.984375 -6 C 8.398438 -6.289062 8.707031 -6.507812 8.90625 -6.65625 C 10.0625 -7.476562 11.335938 -8.515625 12.734375 -9.765625 C 12.828125 -9.859375 13.71875 -10.609375 15.40625 -12.015625 C 15.65625 -12.109375 15.921875 -12.117188 16.203125 -12.046875 C 16.492188 -11.972656 16.734375 -11.800781 16.921875 -11.53125 C 17.117188 -11.269531 17.144531 -11.046875 17 -10.859375 C 16.8125 -10.710938 16.4375 -10.394531 15.875 -9.90625 C 15.320312 -9.425781 14.898438 -9.066406 14.609375 -8.828125 L 13.3125 -7.8125 C 13.21875 -7.71875 12.960938 -7.515625 12.546875 -7.203125 C 12.140625 -6.890625 11.863281 -6.660156 11.71875 -6.515625 L 10.640625 -5.71875 C 8.460938 -4.070312 6.554688 -2.722656 4.921875 -1.671875 L 4.203125 -1.234375 C 3.085938 -0.609375 2.097656 -0.0976562 1.234375 0.296875 C 0.316406 0.679688 -0.515625 0.941406 -1.265625 1.078125 C -2.015625 1.222656 -2.710938 1.113281 -3.359375 0.75 C -4.015625 0.394531 -4.296875 -0.335938 -4.203125 -1.453125 C -4.097656 -2.222656 -4.046875 -2.628906 -4.046875 -2.671875 C -3.859375 -3.828125 -3.304688 -5.46875 -2.390625 -7.59375 C -0.742188 -11.21875 1.398438 -14.929688 4.046875 -18.734375 Z M 8.03125 -18.234375 C 12.519531 -23.441406 15.414062 -27.347656 16.71875 -29.953125 L 15.921875 -29.3125 C 13.890625 -27.570312 11.789062 -25.328125 9.625 -22.578125 C 7.0625 -19.347656 4.9375 -16.359375 3.25 -13.609375 L 3.40625 -13.671875 C 5.238281 -15.316406 6.78125 -16.835938 8.03125 -18.234375 Z M 8.03125 -18.234375 "/></g></g></g><g fill="#ecc9c7" fill-opacity="1"><g transform="translate(369.903588, 168.682926)"><g><path d="M 4.34375 -12.015625 L 3.90625 -11.578125 L 3.625 -11.359375 L 2.828125 -10.640625 C 1.421875 -9.234375 0.3125 -7.90625 -0.5 -6.65625 C -1.664062 -5.0625 -2.460938 -3.46875 -2.890625 -1.875 C -2.992188 -1.488281 -3.046875 -1.222656 -3.046875 -1.078125 C -2.992188 -0.890625 -2.820312 -0.84375 -2.53125 -0.9375 L -1.671875 -1.15625 C -1.140625 -1.300781 0.5 -1.976562 3.25 -3.1875 C 4.695312 -3.8125 7.234375 -5.304688 10.859375 -7.671875 C 11.390625 -8.003906 12.253906 -8.554688 13.453125 -9.328125 C 14.660156 -10.097656 15.628906 -10.703125 16.359375 -11.140625 C 16.691406 -11.234375 17.085938 -11.132812 17.546875 -10.84375 C 18.003906 -10.5625 18.085938 -10.25 17.796875 -9.90625 C 17.554688 -9.625 16.90625 -9.144531 15.84375 -8.46875 C 11.019531 -5.332031 7.546875 -3.207031 5.421875 -2.09375 C 3.972656 -1.375 2.9375 -0.894531 2.3125 -0.65625 C -1.78125 1.132812 -4.265625 1.1875 -5.140625 -0.5 C -5.378906 -1.03125 -5.398438 -1.585938 -5.203125 -2.171875 C -4.960938 -3.140625 -4.628906 -3.957031 -4.203125 -4.625 C -2.554688 -7.71875 -0.210938 -10.566406 2.828125 -13.171875 C 3.210938 -13.359375 3.570312 -13.316406 3.90625 -13.046875 C 4.238281 -12.785156 4.382812 -12.441406 4.34375 -12.015625 Z M 4.78125 -15.265625 C 4.25 -15.359375 3.984375 -15.671875 3.984375 -16.203125 C 3.984375 -16.253906 4.003906 -16.300781 4.046875 -16.34375 C 4.097656 -16.394531 4.144531 -16.457031 4.1875 -16.53125 C 4.238281 -16.601562 4.3125 -16.660156 4.40625 -16.703125 C 4.507812 -16.753906 4.617188 -16.84375 4.734375 -16.96875 C 4.859375 -17.09375 4.992188 -17.203125 5.140625 -17.296875 C 5.285156 -17.390625 5.476562 -17.519531 5.71875 -17.6875 C 5.957031 -17.851562 6.195312 -18.035156 6.4375 -18.234375 C 6.675781 -18.378906 6.960938 -18.414062 7.296875 -18.34375 C 7.640625 -18.269531 7.882812 -18.160156 8.03125 -18.015625 C 8.5625 -17.679688 8.660156 -17.34375 8.328125 -17 L 7.59375 -16.421875 L 6.953125 -15.921875 C 6.078125 -15.335938 5.351562 -15.117188 4.78125 -15.265625 Z M 4.78125 -15.265625 "/></g></g></g></svg>